<?xml version="1.0" encoding="UTF-8"?>
<svg width="44px" height="44px" viewBox="0 0 44 44" version="1.1" xmlns="http://www.w3.org/2000/svg" xmlns:xlink="http://www.w3.org/1999/xlink">
    <!-- Generator: Sketch 48.1 (47250) - http://www.bohemiancoding.com/sketch -->
    <title>robot copy</title>
    <desc>Created with Sketch.</desc>
    <defs></defs>
    <g id="settings-list" stroke="none" stroke-width="1" fill="none" fill-rule="evenodd" transform="translate(-25.000000, -269.000000)">
        <g id="settings-list-copy-3" transform="translate(0.000000, 269.000000)" fill="#686868" fill-rule="nonzero">
            <g id="robot" transform="translate(25.000000, 0.000000)">
                <circle id="Oval" cx="12.4172889" cy="20.7010222" r="1.15328889"></circle>
                <circle id="Oval" cx="31.5827111" cy="20.7010222" r="1.15328889"></circle>
                <path d="M21.9413333,12.5527111 C19.2979111,12.5527111 17.1468,14.7038222 17.1468,17.3472444 C17.1468,19.9906667 19.2979111,22.1417778 21.9413333,22.1417778 C24.5847556,22.1417778 26.7353778,19.9906667 26.7353778,17.3472444 C26.7353778,14.7038222 24.5847556,12.5527111 21.9413333,12.5527111 Z M21.9413333,20.2077333 C20.3636889,20.2077333 19.0803556,18.9244 19.0803556,17.3472444 C19.0803556,15.7696 20.3636889,14.4862667 21.9413333,14.4862667 C23.5184889,14.4862667 24.8018222,15.7696 24.8018222,17.3472444 C24.8013333,18.9244 23.518,20.2077333 21.9413333,20.2077333 Z" id="Shape"></path>
                <path d="M3.35817778,12.5233778 C3.48186667,12.5233778 3.60555556,12.4759556 3.69991111,12.3816 C3.88862222,12.1928889 3.88862222,11.8868444 3.69991111,11.6981333 C1.2496,9.24733333 1.2496,5.25995556 3.69991111,2.80915556 C4.88497778,1.62408889 6.4636,0.971422222 8.1444,0.971422222 C9.8252,0.971422222 11.4038222,1.62408889 12.5888889,2.80915556 C12.7776,2.99786667 13.0836444,2.99786667 13.2723556,2.80915556 C13.4610667,2.62044444 13.4610667,2.3144 13.2723556,2.12568889 C11.9049333,0.757777778 10.0838222,0.00488888889 8.1444,0.00488888889 C6.20497778,0.00488888889 4.38386667,0.757777778 3.01644444,2.12568889 C0.188711111,4.95342222 0.188711111,9.55435556 3.01644444,12.3820889 C3.1108,12.4764444 3.23448889,12.5233778 3.35817778,12.5233778 Z" id="Shape"></path>
                <path d="M11.9049333,4.17706667 C12.0936444,3.98835556 12.0936444,3.68231111 11.9049333,3.4936 C10.9022222,2.4904 9.56706667,1.93795556 8.14488889,1.93795556 C6.72271111,1.93795556 5.38755556,2.4904 4.38435556,3.4936 C3.38115556,4.49631111 2.82871111,5.83195556 2.82871111,7.25413333 C2.82871111,8.67631111 3.38115556,10.0119556 4.38435556,11.0146667 C4.47871111,11.1090222 4.6024,11.1564444 4.72608889,11.1564444 C4.84977778,11.1564444 4.97346667,11.1090222 5.06782222,11.0146667 C5.25653333,10.8259556 5.25653333,10.5199111 5.06782222,10.3312 C4.24746667,9.51084444 3.79524444,8.41817778 3.79524444,7.25413333 C3.79524444,6.09057778 4.24697778,4.99791111 5.06782222,4.17755556 C5.88866667,3.3572 6.98084444,2.90546667 8.14488889,2.90546667 C9.30844444,2.90546667 10.4011111,3.3572 11.2214667,4.17755556 C11.4101778,4.36577778 11.7157333,4.36577778 11.9049333,4.17706667 Z" id="Shape"></path>
                <path d="M8.1444,4.83657778 C8.78973333,4.83657778 9.39693333,5.08786667 9.85355556,5.54448889 C10.0422667,5.7332 10.3483111,5.7332 10.5370222,5.54448889 C10.7257333,5.35577778 10.7257333,5.04973333 10.5370222,4.86102222 C9.89755556,4.22155556 9.04835556,3.86955556 8.1444,3.86955556 C7.24044444,3.86955556 6.39026667,4.22155556 5.75128889,4.86102222 C4.43177778,6.18053333 4.43177778,8.32773333 5.75128889,9.64675556 C5.84564444,9.74111111 5.96933333,9.78853333 6.09302222,9.78853333 C6.21671111,9.78853333 6.3404,9.74111111 6.43475556,9.64675556 C6.62346667,9.45804444 6.62346667,9.152 6.43475556,8.96328889 C5.49217778,8.02071111 5.49217778,6.48706667 6.43475556,5.54448889 C6.89137778,5.08786667 7.49857778,4.83657778 8.1444,4.83657778 Z" id="Shape"></path>
                <path d="M21.9428,35.8922667 C20.7626222,35.8922667 19.7975556,36.8578222 19.7975556,38.0375111 L19.7975556,41.8498667 C19.7975556,43.0300444 20.7631111,43.9951111 21.9428,43.9951111 C23.1229778,43.9951111 24.0880444,43.0295556 24.0880444,41.8498667 L24.0880444,38.0375111 C24.0880444,36.8573333 23.1224889,35.8922667 21.9428,35.8922667 Z" id="Shape"></path>
                <path d="M21.9408444,15.8967111 C21.1429778,15.8967111 20.4903111,16.5493778 20.4903111,17.3472444 C20.4903111,18.1451111 21.1429778,18.7977778 21.9408444,18.7977778 C22.7387111,18.7977778 23.3913778,18.1451111 23.3913778,17.3472444 C23.3913778,16.5493778 22.7387111,15.8967111 21.9408444,15.8967111 Z" id="Shape"></path>
                <path d="M42.2409778,32.9051556 C42.4067111,32.1351556 42.2796,31.3431556 41.8743111,30.6631111 C41.4489778,29.9508 40.7718667,29.4467556 39.9671556,29.2433778 C39.7173333,29.1808 39.4616444,29.1485333 39.2054667,29.1485333 C39.1634222,29.1485333 39.1233333,29.1573333 39.0817778,29.1588 L38.5063556,27.6197778 C38.8539556,27.2364889 39.0739556,26.7348889 39.0778667,26.18 C39.0827556,25.5977333 38.8598222,25.0487111 38.4511111,24.6341333 C38.0424,24.2195556 37.4968,23.9888 36.8988889,23.9848889 C36.6857333,23.9848889 36.4833333,24.0254667 36.2882667,24.0831556 L35.0743556,22.8531111 C35.4581333,22.2341778 35.6859556,21.5091556 35.6918222,20.7313333 C35.7001333,19.6337778 35.2806667,18.5983111 34.5101778,17.8165778 C33.8873333,17.1844444 33.0943556,16.7835556 32.2177778,16.6471556 C31.3201778,12.6025778 27.7038667,9.64333333 23.4945333,9.64333333 L20.3905778,9.64333333 C18.4296444,9.64333333 16.5972889,10.2852444 15.1081333,11.3793778 C15.0558222,11.3099556 15.0064444,11.2390667 14.9438667,11.1750222 C14.3449778,10.5673333 13.4459111,10.4475556 12.7199111,10.8029778 L9.54066667,7.62373333 C9.66826667,7.14071111 9.54848889,6.60635556 9.17008889,6.22746667 C8.60346667,5.66084444 7.68533333,5.66084444 7.11871111,6.22746667 C6.55208889,6.79408889 6.55208889,7.71222222 7.11871111,8.27884444 C7.4976,8.65773333 8.03195556,8.77702222 8.51497778,8.64942222 L11.7509333,11.8853778 C11.5108889,12.562 11.6512,13.3442222 12.1889778,13.8898222 C12.3156,14.0184 12.4593333,14.1176444 12.6084444,14.2032 C12.1806667,14.9604889 11.8560444,15.7847556 11.6634222,16.6632889 C10.8425778,16.8148444 10.0877333,17.2093778 9.48982222,17.8165778 C8.71933333,18.5983111 8.29937778,19.6337778 8.30817778,20.7313333 C8.31404444,21.5091556 8.54186667,22.2341778 8.92564444,22.8531111 L7.70977778,24.0851111 C7.5108,24.0259556 7.304,23.9848889 7.08546667,23.9848889 C6.5032,23.9892889 5.95808889,24.2195556 5.54888889,24.6341333 C5.14066667,25.0487111 4.91773333,25.5982222 4.92213333,26.1795111 C4.92604444,26.7344 5.14555556,27.2364889 5.49364444,27.6197778 L4.91822222,29.1592889 C4.87666667,29.1578222 4.83657778,29.1490222 4.79453333,29.1490222 C4.53884444,29.1490222 4.28266667,29.1808 4.03284444,29.2438667 C3.22813333,29.4467556 2.55102222,29.9508 2.12568889,30.6636 C1.71991111,31.3436444 1.59328889,32.1351556 1.75902222,32.9056444 C0.279644444,34.3952889 -0.3388,36.5737778 0.182355556,38.6398222 C0.293333333,39.0783556 0.686888889,39.3707111 1.11906667,39.3707111 C1.19728889,39.3707111 1.27746667,39.3609333 1.35666667,39.3413778 C1.8744,39.2103556 2.18826667,38.6848 2.05773333,38.1670667 C1.74435556,36.9243111 2.04355556,35.6268 2.81111111,34.6412 C3.35377778,35.0924444 4.04506667,35.3623111 4.79111111,35.3623111 C5.0468,35.3623111 5.30297778,35.3305333 5.5528,35.2674667 C5.83831111,35.1956 6.1028,35.0831556 6.34626667,34.9428444 C6.93635556,36.0428444 7.01213333,37.3716444 6.4944,38.5425333 C6.2788,39.0309333 6.49928889,39.6019556 6.98768889,39.8180444 C7.1148,39.8742667 7.24728889,39.9006667 7.37831111,39.9006667 C7.74937778,39.9006667 8.10333333,39.6860444 8.2632,39.3247556 C9.1256,37.3755556 8.88213333,35.1237333 7.6736,33.4062667 C7.90924444,32.8186222 7.97133333,32.1556889 7.80462222,31.4961778 C7.63351111,30.8190667 7.24728889,30.2441333 6.732,29.832 L7.29568889,28.3247556 C8.41182222,28.2240444 9.28888889,27.2897778 9.28057778,26.1487111 C9.27862222,25.8837333 9.22191111,25.6329333 9.13244444,25.3982667 L10.2999111,24.2151556 C10.6533778,24.4292889 11.0400889,24.5916 11.4512444,24.6913333 L11.4512444,25.9864 C11.4512444,30.1644444 14.3366667,33.6722222 18.2164889,34.6470667 C17.3995556,35.5441778 16.8964889,36.7316889 16.8964889,38.038 C16.8964889,38.5718667 17.3296444,39.0050222 17.8635111,39.0050222 C18.3973778,39.0050222 18.8305333,38.5718667 18.8305333,38.038 C18.8305333,36.3215111 20.2268,34.9257333 21.9428,34.9257333 C23.6588,34.9257333 25.0550667,36.322 25.0550667,38.038 C25.0550667,38.5718667 25.4882222,39.0050222 26.0220889,39.0050222 C26.5559556,39.0050222 26.9891111,38.5718667 26.9891111,38.038 C26.9891111,36.7316889 26.4860444,35.5441778 25.6691111,34.6470667 C29.5489333,33.6722222 32.4338667,30.1644444 32.4338667,25.9864 L32.4338667,24.7211556 C32.8885333,24.6243556 33.3138667,24.4493333 33.7005778,24.2151556 L34.8680444,25.3982667 C34.7785778,25.6329333 34.7223556,25.8842222 34.7199111,26.1492 C34.7120889,27.2897778 35.5886667,28.2240444 36.7048,28.3247556 L37.2684889,29.832 C36.7532,30.2446222 36.3664889,30.8190667 36.1958667,31.4961778 C36.0330667,32.1400444 36.0829333,32.8029778 36.3259111,33.4077333 C35.1178667,35.1252 34.8753778,37.3760444 35.7372889,39.3247556 C35.8966667,39.6860444 36.2511111,39.9006667 36.6221778,39.9006667 C36.7532,39.9006667 36.8856889,39.8737778 37.0128,39.8180444 C37.5016889,39.6019556 37.7221778,39.0309333 37.5060889,38.5425333 C36.9883556,37.3721333 37.0641333,36.0443111 37.6532444,34.9443111 C37.8991556,35.0860889 38.1646222,35.1960889 38.4472,35.2674667 C38.6965333,35.3300444 38.9527111,35.3623111 39.2084,35.3623111 L39.2088889,35.3623111 C39.9549333,35.3623111 40.6457333,35.0924444 41.1888889,34.6412 C41.9564444,35.6263111 42.2556444,36.9243111 41.9422667,38.1670667 C41.8117333,38.6848 42.1256,39.2103556 42.6433333,39.3413778 C42.7225333,39.3614222 42.8022222,39.3707111 42.8809333,39.3707111 C43.3131111,39.3707111 43.7066667,39.0783556 43.8176444,38.6398222 C44.3388,36.5728 43.7208444,34.3948 42.2409778,32.9051556 Z M33.7582667,20.7171556 C33.7499556,21.9080889 32.7736444,22.8765778 31.5836889,22.8765778 L31.5836889,23.8387111 L31.5836889,23.8387111 L31.5665778,22.8765778 C30.3673333,22.8677778 29.3983556,21.8846222 29.4076444,20.6848889 C29.4159556,19.4939556 30.3922667,18.5254667 31.5993333,18.5254667 C32.1806222,18.5298667 32.7247556,18.7601333 33.1329778,19.1737333 C33.5407111,19.5878222 33.7621778,20.1358667 33.7582667,20.7171556 Z M10.8675111,19.1742222 C11.2752444,18.7606222 11.8198667,18.5298667 12.4177778,18.5259556 C13.6087111,18.5259556 14.5845333,19.4944444 14.5928444,20.6853778 C14.6016444,21.8851111 13.6331556,22.8682667 12.4339111,22.8770667 L12.4168,23.8440889 L12.4168,22.8770667 C11.2263556,22.8770667 10.2505333,21.9085778 10.2422222,20.7176444 C10.2378222,20.1358667 10.4592889,19.5878222 10.8675111,19.1742222 Z M23.4945333,32.9912 L20.3905778,32.9912 C16.5273778,32.9912 13.3848,29.8486222 13.3848,25.9859111 L13.3848,24.6918222 C15.1961333,24.2523111 16.5405778,22.6140444 16.5264,20.6712 C16.5132,18.8496 15.3012444,17.3037333 13.6297333,16.7816 C14.4354222,13.7607556 17.1912889,11.5783556 20.3905778,11.5783556 L23.4945333,11.5783556 C24.9758667,11.5783556 26.3604,12.0501333 27.5039111,12.8524 L26.9710222,12.8524 C26.6024,12.8524 26.3032,13.1511111 26.3032,13.5202222 C26.3032,13.8888444 26.6019111,14.1880444 26.9710222,14.1880444 L27.5156444,14.1880444 L27.5156444,14.9683111 C27.5156444,15.3369333 27.8143556,15.6361333 28.1834667,15.6361333 C28.5520889,15.6361333 28.8512889,15.3374222 28.8512889,14.9683111 L28.8512889,14.1875556 L28.9383111,14.1875556 C29.5518667,14.9453333 30.0070222,15.8370667 30.2627111,16.8143556 C28.6547556,17.3638667 27.4863111,18.8833333 27.4731111,20.6707111 C27.4594222,22.572 28.7471556,24.1809333 30.4998222,24.6605333 L30.4998222,25.9854222 C30.4998222,29.8486222 27.3572444,32.9912 23.4945333,32.9912 Z" id="Shape"></path>
                <path d="M16.1592444,27.2184 L14.7087111,27.2184 C14.3083111,27.2184 13.9836889,27.5430222 13.9836889,27.9434222 C13.9836889,28.3438222 14.3083111,28.6684444 14.7087111,28.6684444 L16.1592444,28.6684444 C16.5596444,28.6684444 16.8842667,28.3438222 16.8842667,27.9434222 C16.8847556,27.5430222 16.5596444,27.2184 16.1592444,27.2184 Z" id="Shape"></path>
                <path d="M23.5390222,27.2184 L20.3764,27.2184 C19.976,27.2184 19.6513778,27.5430222 19.6513778,27.9434222 C19.6513778,28.3438222 19.976,28.6684444 20.3764,28.6684444 L23.5390222,28.6684444 C23.9394222,28.6684444 24.2640444,28.3438222 24.2640444,27.9434222 C24.2640444,27.5430222 23.9394222,27.2184 23.5390222,27.2184 Z" id="Shape"></path>
                <path d="M29.2062222,27.2184 L27.7556889,27.2184 C27.3552889,27.2184 27.0306667,27.5430222 27.0306667,27.9434222 C27.0306667,28.3438222 27.3552889,28.6684444 27.7556889,28.6684444 L29.2062222,28.6684444 C29.6066222,28.6684444 29.9312444,28.3438222 29.9312444,27.9434222 C29.9312444,27.5430222 29.6066222,27.2184 29.2062222,27.2184 Z" id="Shape"></path>
                <path d="M27.5347111,24.4864889 C27.5347111,24.1423111 27.2560444,23.8636444 26.9118667,23.8636444 L26.4645333,23.8636444 L26.4645333,23.1361778 C26.4645333,22.792 26.1858667,22.5133333 25.8416889,22.5133333 C25.4975111,22.5133333 25.2188444,22.792 25.2188444,23.1361778 L25.2188444,23.8636444 L24.7104,23.8636444 C24.3662222,23.8636444 24.0875556,24.1423111 24.0875556,24.4864889 C24.0875556,24.8306667 24.3662222,25.1093333 24.7104,25.1093333 L25.2188444,25.1093333 L25.2188444,25.8372889 C25.2188444,26.1814667 25.4975111,26.4601333 25.8416889,26.4601333 C26.1858667,26.4601333 26.4645333,26.1814667 26.4645333,25.8372889 L26.4645333,25.1093333 L26.9118667,25.1093333 C27.2560444,25.1093333 27.5347111,24.8306667 27.5347111,24.4864889 Z" id="Shape"></path>
            </g>
        </g>
    </g>
</svg>