<?xml version="1.0" standalone="no"?>
<!DOCTYPE svg PUBLIC "-//W3C//DTD SVG 20010904//EN"
 "http://www.w3.org/TR/2001/REC-SVG-20010904/DTD/svg10.dtd">
<svg version="1.0" xmlns="http://www.w3.org/2000/svg"
 width="500.000000pt" height="500.000000pt" viewBox="0 0 500.000000 500.000000"
 preserveAspectRatio="xMidYMid meet">
<metadata>
Created by potrace 1.11, written by Peter Selinger 2001-2013
</metadata>
<g transform="translate(0.000000,500.000000) scale(0.100000,-0.100000)"
fill="#000000" stroke="none">
<path d="M765 4983 c-252 -52 -459 -210 -573 -439 -67 -133 -87 -222 -86 -384
1 -142 44 -301 106 -392 10 -14 18 -29 18 -33 0 -7 23 -37 87 -112 50 -61 106
-58 118 6 2 13 -11 36 -39 68 -89 102 -148 222 -171 352 -13 71 -13 205 -1
260 61 273 240 469 501 551 46 14 105 23 170 26 192 7 352 -49 505 -177 50
-41 64 -47 98 -35 17 6 22 15 22 41 0 28 -9 41 -52 80 -112 98 -254 166 -403
192 -63 11 -238 9 -300 -4z"/>
<path d="M835 4773 c-197 -40 -329 -130 -430 -292 -57 -91 -82 -195 -79 -322
3 -141 44 -254 137 -372 39 -50 72 -63 103 -42 35 23 30 56 -17 111 -34 42
-89 132 -89 149 0 3 -3 10 -5 17 -27 77 -27 218 -1 304 19 62 84 164 134 210
181 169 462 176 657 15 57 -47 88 -52 111 -16 22 34 10 61 -48 107 -108 87
-219 129 -358 133 -52 1 -104 1 -115 -2z"/>
<path d="M802 4537 c-104 -35 -190 -117 -237 -225 -26 -61 -27 -199 -1 -267
22 -57 79 -140 102 -149 25 -10 51 -7 62 7 25 31 22 53 -17 104 -84 113 -78
258 17 356 60 63 105 81 197 81 84 1 110 -9 193 -68 18 -14 39 -23 46 -22 47
7 61 69 24 103 -104 94 -253 125 -386 80z"/>
<path d="M839 4311 c-108 -68 -99 -226 16 -281 29 -14 57 -20 79 -17 32 4 41
-3 212 -174 l179 -179 1 -74 c1 -61 5 -82 27 -119 15 -25 39 -54 53 -64 l26
-19 -28 -55 c-15 -30 -39 -92 -54 -138 l-26 -84 -57 -17 c-180 -56 -316 -236
-322 -425 -1 -61 15 -141 41 -202 l26 -63 -68 -69 c-37 -39 -71 -68 -76 -65
-4 3 -32 5 -61 5 -101 2 -179 -51 -225 -150 -21 -46 -24 -62 -18 -114 4 -38
16 -77 32 -105 l26 -44 -28 -76 c-30 -85 -42 -105 -56 -96 -14 9 -107 -16
-158 -41 -65 -33 -118 -90 -154 -165 -26 -56 -30 -76 -30 -145 -1 -70 -4 -83
-24 -105 -114 -123 -179 -311 -168 -485 6 -96 8 -106 20 -145 22 -64 106 -92
163 -55 29 20 51 64 47 95 -12 86 -12 201 0 247 14 51 73 173 85 173 4 0 22
-11 42 -24 82 -56 221 -68 313 -28 l46 21 11 -21 c47 -88 56 -247 20 -352 -12
-33 -21 -69 -21 -82 0 -61 47 -104 116 -104 56 0 96 48 124 151 45 170 30 330
-48 491 -46 95 -47 99 -36 143 27 103 -7 232 -82 314 l-37 42 18 52 c37 104
44 116 73 123 40 10 93 39 124 69 55 51 85 165 63 234 -6 20 4 34 60 91 63 63
70 67 89 55 12 -7 40 -19 64 -26 l42 -12 1 -101 c3 -212 23 -311 97 -476 60
-134 204 -311 313 -385 24 -17 46 -32 49 -35 24 -24 178 -97 245 -116 l64 -18
-35 -47 c-71 -97 -114 -226 -110 -336 1 -48 5 -58 34 -84 44 -39 99 -40 142
-2 27 24 32 38 41 103 19 139 84 236 194 291 115 56 248 49 349 -19 97 -66
147 -149 161 -267 9 -72 14 -85 44 -111 50 -44 134 -27 165 34 39 77 -27 310
-116 408 -22 25 -22 25 52 49 178 57 367 192 487 348 86 111 172 302 188 417
3 25 9 54 12 65 3 11 7 75 8 142 0 68 5 127 11 132 5 5 27 14 49 21 22 7 50
18 61 26 20 12 27 8 88 -54 59 -60 66 -70 60 -96 -11 -51 -5 -115 14 -159 31
-70 75 -104 187 -147 14 -5 29 -32 49 -89 l28 -81 -35 -39 c-79 -87 -110 -211
-82 -321 11 -43 10 -48 -27 -117 -78 -145 -101 -300 -68 -463 29 -141 69 -200
139 -202 41 -1 73 16 94 52 22 37 21 64 -3 136 -36 104 -29 258 15 344 l15 29
47 -21 c36 -16 69 -22 129 -22 75 -1 87 2 154 36 41 21 74 37 75 35 24 -30 58
-98 74 -151 20 -64 22 -136 7 -261 -6 -56 39 -112 95 -117 63 -5 115 45 127
121 8 52 8 198 0 251 -16 103 -79 238 -146 312 -34 37 -35 42 -36 121 -2 69
-7 92 -33 147 -56 118 -145 184 -279 205 -41 6 -43 8 -79 88 l-37 82 27 48
c93 165 -23 368 -210 368 -30 0 -58 -2 -63 -5 -5 -3 -39 26 -76 65 l-68 70 27
62 c113 266 -32 561 -312 636 -40 11 -43 14 -58 69 -88 304 -321 555 -621 670
-84 32 -94 35 -209 53 -117 19 -591 16 -690 -5 -118 -25 -255 -80 -349 -140
l-58 -37 -27 24 c-14 14 -41 33 -60 42 -40 20 -127 23 -160 6 -21 -11 -34 0
-202 167 l-181 179 -2 55 c-3 66 -30 110 -86 138 -56 29 -107 26 -161 -9z"/>
<path d="M2394 897 c-63 -30 -89 -57 -120 -122 -23 -49 -24 -57 -24 -312 0
-287 4 -308 65 -381 83 -99 254 -105 344 -13 73 74 75 85 78 371 2 284 -4 328
-59 394 -66 80 -190 107 -284 63z"/>
</g>
</svg>
